<svg width="120" height="48" viewBox="0 0 120 48" fill="none" xmlns="http://www.w3.org/2000/svg">
<g clip-path="url(#clip0_10_5)">
<rect width="120" height="48" fill="#101010"/>
<path d="M41.842 12H40.6315V37H41.842V12Z" fill="#ED145B"/>
<path d="M29.7367 23.9048H21.2631V27.4762H29.7367V23.9048Z" fill="#ED145B"/>
<path d="M14 12V37H15.8166V13.7181H34.5789V12H14Z" fill="#ED145B"/>
<path d="M97.1197 12H83V37H84.7788V27.6814H84.7927V25.9633H84.7788V13.7181H96.9945C101.289 13.7181 104.221 15.7857 104.221 19.7461V19.8189C104.221 23.5317 101.219 25.9633 96.7861 25.9633H91.1993V27.6814H96.6888C101.664 27.6814 106 24.9732 106 19.7169V19.6441C105.972 14.8101 102.359 12 97.1197 12Z" fill="#ED145B"/>
<path d="M72.1053 25.9676L63.5982 12H61.8396L46.6842 37H48.5715L62.6831 14.0243L70.0463 25.9676H72.1053Z" fill="#ED145B"/>
<path d="M74.1663 31.0476H72.1052L76.1258 37H78.1579L74.1663 31.0476Z" fill="#ED145B"/>
</g>
<defs>
<clipPath id="clip0_10_5">
<rect width="120" height="48" fill="white"/>
</clipPath>
</defs>
</svg>
